<?xml version="1.0" encoding="UTF-8"?>
<svg xmlns="http://www.w3.org/2000/svg" viewBox="0 0 32 32" width="512" height="512"><g id="Ikon"><path d="M16,20h0a6,6,0,0,1,6,6v0a1,1,0,0,1-1,1H11a1,1,0,0,1-1-1v0A6,6,0,0,1,16,20Zm-.92187-8h1.84375A3.07812,3.07812,0,0,0,20,8.92187h0A.92188.92188,0,0,0,19.07813,8H12.92187A.92187.92187,0,0,0,12,8.92187h0A3.07812,3.07812,0,0,0,15.07812,12ZM28,29a.99943.99943,0,0,1-1,1H5a1,1,0,0,1,0-2H7V26.40039c0-4.24414,1.97656-7.71,5.15918-9.0459a1.46118,1.46118,0,0,0,0-2.709C8.97656,13.30957,7,9.84375,7,5.59961V4H5A1,1,0,0,1,5,2H27a1,1,0,0,1,0,2H25V5.59961c0,4.24414-1.97656,7.71-5.15918,9.0459a1.46118,1.46118,0,0,0,0,2.709C23.02344,18.69043,25,22.15625,25,26.40039V28h2A.99943.99943,0,0,1,28,29Zm-5-1V26.40039c0-3.42383-1.50684-6.18359-3.93262-7.20215a3.46011,3.46011,0,0,1,0-6.39648C21.49316,11.7832,23,9.02344,23,5.59961V4H9V5.59961c0,3.42383,1.50684,6.18359,3.93262,7.20215a3.46011,3.46011,0,0,1,0,6.39648C10.50684,20.2168,9,22.97656,9,26.40039V28Z"/></g></svg>
