<svg id="Capa_1" enable-background="new 0 0 371.263 371.263" height="512" viewBox="0 0 371.263 371.263" width="512" xmlns="http://www.w3.org/2000/svg"><g><g>
<path d="m353.12 277.369c-2.036-21.198-20.958-37.845-42.995-37.845-2.635 0-4.731-2.096-4.731-4.731v-70.54c0-52.396-33.533-98.085-79.702-115.151.539-2.695.838-5.449.838-8.204.001-22.574-18.322-40.898-40.898-40.898s-40.899 18.324-40.899 40.899c0 2.695.299 5.389.778 7.964-15.868 5.629-30.539 14.551-43.054 26.647-23.593 22.755-36.587 53.354-36.587 86.169v73.115c0 2.575-2.096 4.731-4.731 4.731-22.096 0-40.959 16.647-42.995 37.845-1.138 11.797 2.755 23.533 10.719 32.276 7.904 8.683 19.222 13.713 31.018 13.713h72.217c2.994 26.887 25.869 47.905 53.534 47.905s50.54-21.018 53.534-47.905h72.217c11.797 0 23.114-5.03 31.018-13.713 7.904-8.744 11.857-20.48 10.719-32.277zm-167.488-253.417c9.341 0 16.946 7.605 16.946 16.946 0 .778-.12 1.497-.24 2.275-4.072-.599-8.204-1.018-12.336-1.138-7.126-.24-14.132.24-21.078 1.198-.12-.778-.24-1.497-.24-2.275.002-9.401 7.607-17.006 16.948-17.006zm0 323.358c-14.431 0-26.527-10.3-29.342-23.952h58.683c-2.813 13.653-14.909 23.952-29.341 23.952zm139.044-53.773c-3.473 3.773-8.144 5.868-13.294 5.868h-251.5c-5.15 0-9.82-2.096-13.294-5.868-3.473-3.772-5.09-8.743-4.551-13.892.838-9.042 9.282-16.168 19.162-16.168 15.809 0 28.683-12.874 28.683-28.683v-73.115c0-26.228 10.419-50.719 29.282-68.923 17.964-17.425 41.438-26.887 66.468-26.887 1.198 0 2.335 0 3.533.06 50.839 1.796 92.277 45.929 92.277 98.325v70.54c0 15.809 12.874 28.683 28.683 28.683 9.88 0 18.324 7.126 19.162 16.168.479 5.149-1.138 10.06-4.611 13.892z"/><path d="m30.54 143.715c5.509 0 10.479-3.832 11.677-9.401 5.808-26.288 18.922-50.24 38.084-69.282 4.671-4.671 4.671-12.276 0-16.946-4.671-4.671-12.276-4.671-16.946 0-22.395 22.274-37.785 50.359-44.551 81.137-1.437 6.467 2.635 12.874 9.102 14.252.958.18 1.796.24 2.634.24z"/>
<path d="m340.724 143.715c.838 0 1.737-.12 2.575-.299 6.467-1.437 10.539-7.785 9.102-14.252-6.767-30.779-22.156-58.803-44.552-81.139-4.671-4.671-12.276-4.671-16.946 0s-4.671 12.276 0 16.946c19.102 19.042 32.276 42.995 38.084 69.282 1.258 5.629 6.228 9.462 11.737 9.462z"/></g></g></svg>