<svg height="420pt" viewBox="0 -20 420.52607 420" width="420pt" xmlns="http://www.w3.org/2000/svg"><path d="m314.027344 157.277344c0 86.714844-70.296875 157.011718-157.015625 157.011718-86.714844 0-157.011719-70.296874-157.011719-157.011718 0-86.71875 70.296875-157.015625 157.011719-157.015625 86.71875 0 157.015625 70.296875 157.015625 157.015625zm0 0" fill="#efefd2"/><path d="m404.585938 191.410156c0 91.488282-74.164063 165.652344-165.652344 165.652344-91.488282 0-165.65625-74.164062-165.65625-165.652344 0-91.488281 74.167968-165.65625 165.65625-165.65625 91.488281 0 165.652344 74.167969 165.652344 165.65625zm0 0" fill="#9dc1e4"/><path d="m238.933594 363.890625c-95.109375 0-172.480469-77.375-172.480469-172.480469 0-95.105468 77.371094-172.480468 172.480469-172.480468 95.105468 0 172.480468 77.371093 172.480468 172.476562 0 95.109375-77.375 172.484375-172.480468 172.484375zm0-331.308594c-87.578125 0-158.824219 71.25-158.824219 158.824219 0 87.578125 71.246094 158.828125 158.824219 158.828125s158.824218-71.25 158.824218-158.828125c0-87.574219-71.246093-158.824219-158.824218-158.824219zm0 0" fill="#4c241d"/><path d="m363.671875 191.410156c0 68.890625-55.847656 124.738282-124.738281 124.738282s-124.738282-55.847657-124.738282-124.738282 55.847657-124.738281 124.738282-124.738281 124.738281 55.847656 124.738281 124.738281zm0 0" fill="#fff"/><path d="m350.015625 158.203125c0 49.527344-40.148437 89.675781-89.675781 89.675781-49.523438 0-89.671875-40.148437-89.671875-89.675781 0-49.523437 40.148437-89.671875 89.671875-89.671875 49.527344 0 89.675781 40.148438 89.675781 89.671875zm0 0" fill="#c1dbdc"/><g fill="#4c241d"><path d="m129.546875 134.507812c-1.167969 0-2.355469-.300781-3.433594-.933593-3.261719-1.902344-4.355469-6.082031-2.453125-9.339844 4.109375-7.046875 8.917969-13.769531 14.277344-19.976563 2.464844-2.859374 6.792969-3.164062 9.628906-.707031 2.851563 2.464844 3.171875 6.773438.707032 9.628907-4.816407 5.582031-9.136719 11.617187-12.828126 17.945312-1.265624 2.171875-3.550781 3.382812-5.898437 3.382812zm0 0"/><path d="m239.199219 324.8125c-5.230469 0-10.5-.308594-15.773438-.921875-35.386719-4.144531-67.039062-21.816406-89.132812-49.769531s-31.980469-62.832032-27.839844-98.21875c.441406-3.738282 3.800781-6.421875 7.574219-5.988282 3.746094.4375 6.425781 3.832032 5.988281 7.574219-7.675781 65.574219 39.425781 125.164063 105 132.84375 31.710937 3.691407 63.066406-5.15625 88.164063-24.988281 25.085937-19.835938 40.953124-48.25 44.675781-80.015625 3.71875-31.761719-5.15625-63.070313-24.988281-88.164063-19.832032-25.089843-48.25-40.953124-80.015626-44.675781-26.726562-3.128906-52.945312 2.574219-75.878906 16.464844-3.21875 1.953125-7.421875.925781-9.378906-2.304687-1.953125-3.226563-.921875-7.425782 2.300781-9.378907 25.566407-15.476562 54.78125-21.816406 84.546875-18.339843 35.382813 4.140624 67.039063 21.816406 89.132813 49.769531 22.09375 27.949219 31.980469 62.828125 27.839843 98.214843-4.140624 35.386719-21.820312 67.042969-49.765624 89.136719-23.789063 18.800781-52.589844 28.761719-82.449219 28.761719zm0 0"/><path d="m188.519531 248.652344c-1.746093 0-3.492187-.667969-4.824219-2-2.667968-2.664063-2.667968-6.988282 0-9.652344l48.410157-48.417969v-69.195312c0-3.769531 3.054687-6.828125 6.828125-6.828125 3.773437 0 6.828125 3.058594 6.828125 6.828125v72.023437c0 1.808594-.722657 3.546875-2 4.824219l-50.414063 50.417969c-1.335937 1.332031-3.082031 2-4.828125 2zm0 0"/></g><path d="m413.699219 314.289062c0 32.425782-26.285157 58.714844-58.710938 58.714844-32.429687 0-58.714843-26.289062-58.714843-58.714844 0-32.425781 26.285156-58.710937 58.714843-58.710937 32.425781 0 58.710938 26.285156 58.710938 58.710937zm0 0" fill="#fff"/><path d="m354.988281 379.828125c-36.140625 0-65.542969-29.398437-65.542969-65.539063 0-36.136718 29.402344-65.539062 65.542969-65.539062 36.136719 0 65.539063 29.402344 65.539063 65.539062 0 36.140626-29.398438 65.539063-65.539063 65.539063zm0-117.425781c-28.617187 0-51.886719 23.277344-51.886719 51.886718 0 28.609376 23.273438 51.886719 51.886719 51.886719 28.609375 0 51.882813-23.277343 51.882813-51.886719 0-28.609374-23.273438-51.886718-51.882813-51.886718zm0 0" fill="#4c241d"/><path d="m354.988281 327.941406c-3.773437 0-6.828125-3.054687-6.828125-6.824218v-40.960938c0-3.769531 3.054688-6.828125 6.828125-6.828125 3.773438 0 6.824219 3.058594 6.824219 6.828125v40.960938c0 3.769531-3.050781 6.824218-6.824219 6.824218zm0 0" fill="#4c241d"/><path d="m361.8125 341.597656c0 3.769532-3.054688 6.824219-6.824219 6.824219-3.773437 0-6.828125-3.054687-6.828125-6.824219 0-3.773437 3.054688-6.828125 6.828125-6.828125 3.769531 0 6.824219 3.054688 6.824219 6.828125zm0 0" fill="#4c241d"/></svg>